<svg width="28" height="30" viewBox="0 0 28 30" fill="none" xmlns="http://www.w3.org/2000/svg">
<path d="M3.18415 7.21387C1.12337 10.0129 0 13.5141 0 17.21C0 17.2682 0.0085919 17.3243 0.0235345 17.3778C0.139402 16.1895 0.682691 15.1278 1.49376 14.3521C1.90487 12.0187 2.80915 9.88927 4.07535 8.11495C3.69301 7.91583 3.38625 7.60028 3.18415 7.21387ZM27.3535 17.3778C27.3685 17.3243 27.3771 17.2682 27.3771 17.21C27.3771 13.5141 26.2537 10.013 24.193 7.21399C23.9909 7.60047 23.6842 7.91601 23.302 8.1152C24.5681 9.88939 25.4722 12.0188 25.8834 14.3521C26.6944 15.1278 27.2377 16.1895 27.3535 17.3778Z" fill="#2D9FFF"/>
<path d="M24.1555 7.23471C24.329 6.90063 24.4256 6.51446 24.4256 6.10502C24.4256 5.48307 24.193 4.88464 23.7873 4.46319C21.0266 1.59536 17.4533 0.0103188 13.7257 6.25042e-05C13.7135 6.25042e-05 13.702 0 13.6898 0C9.94035 0 6.35339 1.5846 3.58675 4.4645C3.38164 4.67845 3.222 4.93286 3.1125 5.21985C3.00479 5.50096 2.9502 5.7987 2.9502 6.10483C2.9502 6.51433 3.04686 6.90057 3.22045 7.23465C3.4219 7.62239 3.72752 7.93902 4.10846 8.1389C4.16436 8.16823 4.22131 8.19581 4.28038 8.21988C5.00565 8.5165 5.80698 8.33639 6.37181 7.75009C8.38992 5.65468 10.9882 4.50071 13.6879 4.50071C16.3879 4.50071 18.9861 5.65474 21.0042 7.75009C21.389 8.14972 21.8837 8.36066 22.3894 8.36066C22.6258 8.36066 22.8644 8.31457 23.0954 8.22013C23.1546 8.19599 23.2116 8.16835 23.2675 8.13902C23.6485 7.93915 23.9541 7.62252 24.1555 7.23471Z" fill="#2D9FFF"/>
<path d="M24.0069 24.61C24.0069 26.0018 22.8654 27.1342 21.4623 27.1342H17.377C17.4274 27.3151 17.4549 27.5053 17.4549 27.7019V27.7933C17.4549 27.9899 17.4274 28.1802 17.377 28.3611H21.4623C23.5485 28.3611 25.2458 26.6783 25.2458 24.61V21.8037C24.8686 22.065 24.4521 22.2726 24.0069 22.4152V24.61Z" fill="#2D9FFF"/>
<path d="M17.5412 27.741C17.5412 27.5416 17.5133 27.3487 17.4622 27.1652C17.207 26.2491 16.3591 25.5742 15.3547 25.5742H13.6621C12.4565 25.5742 11.4756 26.5462 11.4756 27.741V27.8337C11.4756 29.0284 12.4565 30.0004 13.6621 30.0004H15.3547C16.3591 30.0004 17.207 29.3255 17.4622 28.4095C17.5133 28.226 17.5412 28.0331 17.5412 27.8337V27.741Z" fill="#2D9FFF"/>
<path d="M0.0235345 17.3016C0.00821834 17.4611 0 17.6227 0 17.7863C0 20.2674 1.80887 22.3202 4.13917 22.6223C4.12074 22.5166 4.11059 22.4081 4.11059 22.2971V13.2753C4.11059 13.1644 4.12074 13.0558 4.13917 12.9502C3.12214 13.082 2.20497 13.547 1.4937 14.2362C0.682691 15.022 0.139402 16.0977 0.0235345 17.3016ZM25.8833 14.2362C25.172 13.547 24.2548 13.082 23.2378 12.9502C23.2563 13.0558 23.2664 13.1644 23.2664 13.2753V22.2971C23.2664 22.4081 23.2563 22.5166 23.2378 22.6223C23.5261 22.5849 23.8066 22.5217 24.0765 22.4332C24.524 22.2865 24.9426 22.0728 25.3217 21.8039C26.5619 20.9238 27.3771 19.4516 27.3771 17.7863C27.3771 17.6228 27.3689 17.4612 27.3535 17.3017C27.2377 16.0977 26.6944 15.022 25.8833 14.2362Z" fill="#2D9FFF"/>
<path d="M4.09863 22.2538C4.09863 22.3637 4.10879 22.4712 4.12725 22.5758C4.27961 23.44 5.03324 24.0985 5.93787 24.0985H6.05183C7.06598 24.0985 7.89106 23.271 7.89106 22.2538V13.3203C7.89106 12.3031 7.06598 11.4756 6.05183 11.4756H5.93787C5.03324 11.4756 4.27961 12.1342 4.12725 12.9983C4.10879 13.103 4.09863 13.2104 4.09863 13.3203V22.2538ZM23.279 13.3203C23.279 13.2104 23.2688 13.103 23.2504 12.9983C23.098 12.1342 22.3444 11.4756 21.4397 11.4756H21.3258C20.3116 11.4756 19.4865 12.3031 19.4865 13.3203V22.2538C19.4865 23.271 20.3116 24.0985 21.3258 24.0985H21.4397C22.3443 24.0985 23.0979 23.44 23.2504 22.5758C23.2688 22.4712 23.279 22.3638 23.279 22.2538V13.3203Z" fill="#2D9FFF"/>
</svg>
