<svg width="17" height="30" viewBox="0 0 17 30" fill="none" xmlns="http://www.w3.org/2000/svg">
<path d="M12.967 13.6276C11.689 12.977 10.3304 12.4814 8.98514 11.9671C8.20263 11.6876 7.46675 11.308 6.79918 10.8394C5.50108 9.88524 5.74996 8.33626 7.27002 7.72263C7.69611 7.56489 8.14946 7.47885 8.60853 7.46858C10.3431 7.37288 12.0753 7.68863 13.6396 8.38563C14.4332 8.73883 14.6955 8.62723 14.9646 7.86519C15.2471 7.05985 15.4824 6.24185 15.7448 5.43023C15.9197 4.885 15.7045 4.52563 15.1462 4.29637C14.1336 3.87958 13.0664 3.5859 11.9716 3.42273C10.5322 3.21825 10.5322 3.21208 10.5254 1.87992C10.5186 0.00274241 10.5186 0.00274258 8.47388 0.00274258C8.17788 0.00274258 7.882 -0.00342823 7.586 0.00274258C6.63091 0.0275304 6.46946 0.182431 6.44255 1.06841C6.42915 1.46491 6.44255 1.86152 6.43585 2.26419C6.42915 3.44145 6.42245 3.42283 5.19827 3.83178C2.23876 4.82308 0.409309 6.68186 0.213908 9.65598C0.0390576 12.2892 1.53221 14.0675 3.87963 15.3624C5.32578 16.1617 6.92657 16.6325 8.46003 17.2583C9.06002 17.4851 9.62174 17.7897 10.1281 18.1629C11.6012 19.2843 11.3317 21.1494 9.58315 21.8557C8.65713 22.2196 7.64024 22.3418 6.64385 22.2089C5.08257 22.0482 3.56529 21.6306 2.16428 20.9758C1.33692 20.5793 1.09486 20.6847 0.812372 21.5093C0.570193 22.2218 0.355035 22.9405 0.139765 23.6592C-0.149419 24.6257 -0.0418987 24.855 0.960311 25.3073C2.23831 25.8774 3.60362 26.1685 4.99595 26.373C6.08592 26.5341 6.11919 26.5775 6.1327 27.6184C6.1394 28.089 6.1394 28.5664 6.1461 29.0372C6.1528 29.632 6.46219 29.9785 7.1281 29.9914C7.88143 30.0037 8.64146 30.0037 9.39479 29.9852C10.0136 29.9729 10.3297 29.6631 10.3297 29.0868C10.3297 28.4424 10.3637 27.7919 10.3364 27.1475C10.3023 26.4908 10.6122 26.1562 11.2982 25.9827C12.8548 25.6078 14.2421 24.7876 15.2605 23.6401C18.1395 20.4183 17.043 15.7032 12.967 13.6276Z" fill="#007FFF"/>
</svg>
