<svg width="26" height="22" viewBox="0 0 26 22" fill="none" xmlns="http://www.w3.org/2000/svg">
<path d="M13 22C13.2515 22 13.4643 21.9141 13.6384 21.7422L22.692 13.1198C22.7887 13.0434 22.9217 12.9193 23.091 12.7474C23.2602 12.5755 23.5286 12.2628 23.8962 11.8092C24.2638 11.3557 24.5926 10.8902 24.8828 10.4128C25.173 9.93533 25.4317 9.35764 25.659 8.67969C25.8863 8.00174 26 7.34288 26 6.70312C26 4.60243 25.3858 2.96007 24.1574 1.77604C22.9289 0.592014 21.2314 0 19.0647 0C18.465 0 17.8532 0.102648 17.2294 0.307943C16.6055 0.513238 16.0251 0.790148 15.4883 1.13867C14.9515 1.4872 14.4896 1.81424 14.1027 2.11979C13.7158 2.42535 13.3482 2.75 13 3.09375C12.6518 2.75 12.2842 2.42535 11.8973 2.11979C11.5104 1.81424 11.0485 1.4872 10.5117 1.13867C9.97489 0.790148 9.39453 0.513238 8.77065 0.307943C8.14676 0.102648 7.53497 0 6.93527 0C4.7686 0 3.07106 0.592014 1.84263 1.77604C0.614212 2.96007 0 4.60243 0 6.70312C0 8.81337 1.10752 10.9618 3.32255 13.1484L12.3616 21.7422C12.5357 21.9141 12.7485 22 13 22Z" fill="#6ABE45"/>
</svg>
