<svg width="24" height="26" viewBox="0 0 24 26" fill="none" xmlns="http://www.w3.org/2000/svg">
<path d="M3.00305 3.55H5.06305L7.58305 11H5.89305L5.39305 9.48H2.66305L2.16305 11H0.483047L3.00305 3.55ZM4.96305 8.13L4.03305 5.26L3.09305 8.13H4.96305ZM8.35727 3.55H10.7873C11.5806 3.55 12.2773 3.71 12.8773 4.03C13.4773 4.34333 13.9406 4.78333 14.2673 5.35C14.5939 5.91 14.7573 6.55 14.7573 7.27C14.7573 7.99 14.5939 8.63333 14.2673 9.2C13.9406 9.76 13.4739 10.2 12.8673 10.52C12.2673 10.84 11.5739 11 10.7873 11H8.35727V3.55ZM10.8273 9.65C11.3073 9.65 11.7273 9.55333 12.0873 9.36C12.4473 9.16667 12.7239 8.89 12.9173 8.53C13.1106 8.17 13.2073 7.75 13.2073 7.27C13.2073 6.79 13.1106 6.37333 12.9173 6.02C12.7239 5.66 12.4473 5.38333 12.0873 5.19C11.7273 4.99667 11.3073 4.9 10.8273 4.9H9.90727V9.65H10.8273ZM15.7498 3.55H18.1798C18.9732 3.55 19.6698 3.71 20.2698 4.03C20.8698 4.34333 21.3332 4.78333 21.6598 5.35C21.9865 5.91 22.1498 6.55 22.1498 7.27C22.1498 7.99 21.9865 8.63333 21.6598 9.2C21.3332 9.76 20.8665 10.2 20.2598 10.52C19.6598 10.84 18.9665 11 18.1798 11H15.7498V3.55ZM18.2198 9.65C18.6998 9.65 19.1198 9.55333 19.4798 9.36C19.8398 9.16667 20.1165 8.89 20.3098 8.53C20.5032 8.17 20.5998 7.75 20.5998 7.27C20.5998 6.79 20.5032 6.37333 20.3098 6.02C20.1165 5.66 19.8398 5.38333 19.4798 5.19C19.1198 4.99667 18.6998 4.9 18.2198 4.9H17.2998V9.65H18.2198Z" />
<path d="M20.4887 14C20.2346 14 19.9909 14.1054 19.8112 14.2929C19.6315 14.4804 19.5306 14.7348 19.5306 15V19C19.5306 19.2652 19.4296 19.5196 19.2499 19.7071C19.0703 19.8946 18.8266 20 18.5725 20H3.63544L4.88099 18.71C5.06141 18.5217 5.16277 18.2663 5.16277 18C5.16277 17.7337 5.06141 17.4783 4.88099 17.29C4.70058 17.1017 4.45588 16.9959 4.20073 16.9959C3.94558 16.9959 3.70088 17.1017 3.52047 17.29L0.646123 20.29C0.558895 20.3851 0.490519 20.4972 0.444918 20.62C0.34909 20.8635 0.34909 21.1365 0.444918 21.38C0.490519 21.5028 0.558895 21.6149 0.646123 21.71L3.52047 24.71C3.60954 24.8037 3.71551 24.8781 3.83226 24.9289C3.94902 24.9797 4.07425 25.0058 4.20073 25.0058C4.32721 25.0058 4.45244 24.9797 4.5692 24.9289C4.68595 24.8781 4.79192 24.8037 4.88099 24.71C4.97079 24.617 5.04207 24.5064 5.09071 24.3846C5.13936 24.2627 5.1644 24.132 5.1644 24C5.1644 23.868 5.13936 23.7373 5.09071 23.6154C5.04207 23.4936 4.97079 23.383 4.88099 23.29L3.63544 22H18.5725C19.3348 22 20.0659 21.6839 20.6049 21.1213C21.144 20.5587 21.4468 19.7956 21.4468 19V15C21.4468 14.7348 21.3459 14.4804 21.1662 14.2929C20.9865 14.1054 20.7428 14 20.4887 14Z" />
</svg>
